<?xml version="1.0" encoding="UTF-8" standalone="no"?>
<svg
   width="1200"
   height="630"
   viewBox="0 0 1200 630"
   version="1.1"
   id="svg10"
   xmlns:xlink="http://www.w3.org/1999/xlink"
   xmlns="http://www.w3.org/2000/svg"
   xmlns:svg="http://www.w3.org/2000/svg">
  <!-- 
    Advanced OG Image for Neon Insurance Brokers Ltd
    Designed by: AI Assistant
    Version: 2.0 (Professional)
  -->
  <defs
     id="defs4">
    <pattern
       xlink:href="#pro-pattern"
       id="pattern2"
       patternTransform="scale(1)" />
    <linearGradient
       id="linearGradient17">
      <stop
         style="stop-color:#ff0000;stop-opacity:1;"
         offset="0.59323984"
         id="stop17" />
      <stop
         style="stop-color:#000000;stop-opacity:0;"
         offset="1"
         id="stop18" />
    </linearGradient>
    <marker
       style="overflow:visible"
       id="Torso"
       refX="0"
       refY="0"
       orient="auto-start-reverse"
       markerWidth="1"
       markerHeight="1"
       viewBox="0 0 1 1"
       preserveAspectRatio="xMidYMid">
      <g
         transform="scale(-0.7)"
         id="g37">
        <path
           style="fill:none;fill-opacity:0.75;fill-rule:evenodd;stroke:context-stroke;stroke-width:1.25"
           d="m -4.7792281,-3.239542 c 2.350374,0.3659393 5.30026732,1.9375477 5.03715532,3.62748546 C -0.00518779,2.0778819 -2.2126741,2.6176539 -4.5630471,2.2517169 -6.9134221,1.8857769 -8.521035,0.75201414 -8.257922,-0.93792336 -7.994809,-2.6278615 -7.1296041,-3.6054813 -4.7792281,-3.239542 Z"
           id="path33" />
        <path
           style="fill:none;fill-opacity:0.75;fill-rule:evenodd;stroke:context-stroke;stroke-width:1pt"
           d="M 4.4598789,0.08866574 C -2.5564571,-4.378332 5.2248769,-3.9061806 -0.84829578,-8.7197331"
           id="path34" />
        <path
           style="fill:none;fill-opacity:0.75;fill-rule:evenodd;stroke:context-stroke;stroke-width:1pt"
           d="M 4.9298719,0.05752074 C -1.3872731,1.7494689 1.8027579,5.4782079 -4.9448731,7.5462725"
           id="path35" />
        <rect
           style="fill:context-stroke;fill-rule:evenodd;stroke-width:1pt"
           width="2.6366582"
           height="2.7608147"
           x="-10.391706"
           y="-1.7408575"
           transform="matrix(0.527536,-0.849533,0.887668,0.460484,0,0)"
           id="rect35" />
        <rect
           style="fill:context-stroke;fill-rule:evenodd;stroke-width:1pt"
           width="2.7327356"
           height="2.8614161"
           x="4.9587269"
           y="-7.9629307"
           transform="matrix(0.671205,-0.741272,0.790802,0.612072,0,0)"
           id="rect36" />
        <path
           style="fill:#ff0000;fill-opacity:0.75;fill-rule:evenodd;stroke:context-stroke;stroke-width:1pt"
           d="m 16.779951,-28.685045 a 0.60731727,0.60731727 0 1 0 -1.214634,0 0.60731727,0.60731727 0 1 0 1.214634,0 z"
           transform="matrix(0,-1.109517,1.109517,0,25.96648,19.71619)"
           id="path36" />
        <path
           style="fill:#ff0000;fill-opacity:0.75;fill-rule:evenodd;stroke:context-stroke;stroke-width:1pt"
           d="m 16.779951,-28.685045 a 0.60731727,0.60731727 0 1 0 -1.214634,0 0.60731727,0.60731727 0 1 0 1.214634,0 z"
           transform="matrix(0,-1.109517,1.109517,0,26.8245,16.99126)"
           id="path37" />
      </g>
    </marker>
    <!-- Background Gradient -->
    <linearGradient
       id="pro-bg-grad"
       x1="0"
       y1="0"
       x2="869.4826"
       y2="869.4826"
       gradientTransform="scale(1.3801311,0.72456884)"
       gradientUnits="userSpaceOnUse">
      <stop
         offset="0%"
         stop-color="#380D11"
         id="stop1" />
      <!-- brand-dark -->
      <stop
         offset="100%"
         stop-color="#8A1C1C"
         id="stop2" />
      <!-- brand-text-primary -->
    </linearGradient>
    <!-- Subtle Geometric Pattern -->
    <pattern
       id="pro-pattern"
       x="0"
       y="0"
       width="40"
       height="40"
       patternUnits="userSpaceOnUse">
      <path
         d="M-10,10 l20,-20 M0,40 l40,-40 M30,50 l20,-20"
         stroke-width="1"
         stroke="#F5EFEF"
         opacity="0.05"
         id="path2" />
    </pattern>
    <!-- Font Styles -->
    <style
       id="style2">
      .tagline { font-family: -apple-system, BlinkMacSystemFont, &quot;Segoe UI&quot;, Roboto, Helvetica, Arial, sans-serif; font-size: 36px; font-weight: 600; fill: #F5EFEF; /* brand-text-onDark */ }
      .website { font-family: -apple-system, BlinkMacSystemFont, &quot;Segoe UI&quot;, Roboto, Helvetica, Arial, sans-serif; font-size: 24px; font-weight: 400; fill: #FBCB0A; /* brand-secondary */ letter-spacing: 1px; }
    </style>
    <!-- Definitions from your original logo SVG -->
    <linearGradient
       id="logo-linear-gradient"
       x1="537.00201"
       y1="886.625"
       x2="537.00201"
       y2="10.375"
       gradientUnits="userSpaceOnUse">
      <stop
         offset="0"
         stop-color="#161515"
         id="stop3" />
      <stop
         offset="1"
         stop-color="#161515"
         id="stop4" />
    </linearGradient>
    <linearGradient
       id="logo-linear-gradient-2"
       x1="537.89099"
       y1="690.31201"
       x2="537.89099"
       y2="52.813"
       xlink:href="#logo-linear-gradient" />
    <linearGradient
       id="logo-linear-gradient-3"
       x1="587"
       y1="416.34399"
       x2="587"
       y2="363"
       xlink:href="#logo-linear-gradient" />
    <linearGradient
       xlink:href="#logo-linear-gradient"
       id="linearGradient10"
       gradientUnits="userSpaceOnUse"
       x1="537.00201"
       y1="886.625"
       x2="537.00201"
       y2="10.375" />
    <filter
       style="color-interpolation-filters:sRGB"
       id="filter11"
       x="-0.00012157006"
       y="-0.0026566775"
       width="1.0002431"
       height="1.0053134">
      <feGaussianBlur
         stdDeviation="0.048816451"
         id="feGaussianBlur11" />
    </filter>
    <filter
       style="color-interpolation-filters:sRGB"
       id="filter12"
       x="-0.026626951"
       y="-0.034317371"
       width="1.0532539"
       height="1.0686347">
      <feGaussianBlur
         stdDeviation="9.0383538"
         id="feGaussianBlur12" />
    </filter>
    <filter
       style="color-interpolation-filters:sRGB"
       id="filter13"
       x="-0.022593676"
       y="-0.024965821"
       width="1.0451874"
       height="1.0499316">
      <feGaussianBlur
         stdDeviation="9.0383538"
         id="feGaussianBlur13" />
    </filter>
    <filter
       style="color-interpolation-filters:sRGB"
       id="filter14"
       x="-0.034420316"
       y="-0.13248308"
       width="1.0688406"
       height="1.2649662">
      <feGaussianBlur
         stdDeviation="2.921252"
         id="feGaussianBlur14" />
    </filter>
    <filter
       style="color-interpolation-filters:sRGB"
       id="filter15"
       x="-0.043439602"
       y="-0.42468336"
       width="1.0870269"
       height="1.850308">
      <feGaussianBlur
         stdDeviation="9.0383538"
         id="feGaussianBlur15" />
    </filter>
    <radialGradient
       xlink:href="#linearGradient17"
       id="radialGradient18"
       cx="777.32745"
       cy="37.524967"
       fx="777.32745"
       fy="37.524967"
       r="143.18201"
       gradientTransform="matrix(1,0,0,0.23036512,0,28.880523)"
       gradientUnits="userSpaceOnUse" />
  </defs>
  <!-- Layer 1: Background Gradient -->
  <rect
     width="1200"
     height="630"
     fill="url(#pro-bg-grad)"
     id="rect4"
     x="0"
     y="0"
     style="fill:url(#pro-bg-grad)" />
  <!-- Layer 2: Subtle Pattern Overlay -->
  <rect
     width="1200"
     height="630"
     fill="url(#pro-pattern)"
     id="rect5"
     x="0"
     y="0"
     style="fill:url(#pattern2)" />
  <!-- Layer 3: Main Content Group -->
  <g
     transform="translate(60,60)"
     id="g10">
    <g
       transform="matrix(0.47,0,0,0.47,630.30909,28.072998)"
       id="g9">
      <path
         style="fill:#a80a06;fill-rule:evenodd;stroke:url(#linearGradient10);stroke-width:0.37px;filter:url(#filter13)"
         d="m 156.859,10.36 h 760.282 a 104,104 0 0 1 104,104 v 668.28 a 104,104 0 0 1 -104,104 H 156.859 a 104,104 0 0 1 -104,-104 V 114.36 a 104,104 0 0 1 104,-104 z"
         id="path7" />
      <path
         style="fill:#e5e400;fill-rule:evenodd;stroke:url(#logo-linear-gradient-2);stroke-width:0.37px;filter:url(#filter12)"
         d="M 231.087,52.808 H 844.7 a 104,104 0 0 1 104,104 V 586.3 a 104,104 0 0 1 -104,104 H 231.087 a 104,104 0 0 1 -104,-104 V 156.8 a 104,104 0 0 1 104,-103.992 z"
         id="path8" />
      <text
         style="font-weight:800;font-size:60px;font-family:Nexa;fill:#a80a06;filter:url(#filter11)"
         x="32.325001"
         y="978.64203"
         id="text8">NEON INSURANCE BROKERS LTD<tspan
   style="font-size:48px"
   id="tspan8" /></text>
      <text
         style="font-weight:800;font-size:72px;font-family:Nexa;fill:#a80a06;filter:url(#filter14)"
         transform="matrix(3.094,0,0,3.094,197.191,616.966)"
         id="text9">NEON<tspan
   style="font-size:48px"
   id="tspan9" /></text>
      <path
         style="fill:#a80a06;fill-rule:evenodd;stroke:url(#logo-linear-gradient-3);stroke-width:1.96px;filter:url(#filter15)"
         d="M 839,407 C 716.077,443.069 335,363 335,363"
         id="path9" />
    </g>
    <!-- Left Side: Tagline and Website -->
    <g
       transform="translate(0,220)"
       id="g7">
      <text
         class="tagline"
         y="0"
         id="text5">Clarity in Complexity.</text>
      <path
         style="fill:#ffff00;fill-opacity:1;stroke:url(#radialGradient18);stroke-width:11;stroke-dasharray:none;marker-start:url(#Torso);paint-order:markers fill stroke"
         id="rect15"
         width="286.36401"
         height="58.565533"
         x="634.14545"
         y="11.943573"
         rx="0"
         ry="0"
         transform="translate(-2,-2)"
         d="m 657.14545,11.943573 h 240.36401 a 23,23 45 0 1 23,23 v 12.565533 a 23,23 135 0 1 -23,23 H 657.14545 a 23,23 45 0 1 -23,-23 V 34.943573 a 23,23 135 0 1 23,-23 z" />
      <text
         class="tagline"
         y="50"
         id="text6"
         style="mix-blend-mode:normal">Your Unwavering Advocates in Secur<tspan
   style="fill:#ff2300;fill-opacity:1"
   id="tspan15">ing Your World.</tspan></text>
      <text
         class="website"
         y="120"
         id="text7">www.neoninsurancebrokerltd.org</text>
    </g>
    <!-- Decorative Dividing Line -->
    <rect
       x="520"
       y="0"
       width="2"
       height="510"
       fill="#fbcb0a"
       opacity="0.3"
       id="rect7" />
    <!-- Right Side: The Complete Logo -->
  </g>
</svg>
