 <svg  version="1.0" xmlns="http://www.w3.org/2000/svg"  width="144.000000pt" height="150.000000pt" viewBox="0 0 144.000000 150.000000"  preserveAspectRatio="xMidYMid meet">  <g transform="translate(0.000000,150.000000) scale(0.100000,-0.100000)" fill="#e01b24" stroke="none"> <path d="M235 1470 c-38 -5 -82 -13 -96 -18 -42 -16 -112 -89 -105 -107 3 -9 2 -14 -2 -11 -15 9 -17 -64 -17 -534 0 -467 3 -582 17 -574 4 3 5 -2 2 -10 -15 -38 79 -138 146 -156 27 -7 207 -10 553 -8 574 3 542 -1 611 79 23 27 39 60 46 93 8 35 10 212 8 561 -3 506 -3 510 -25 552 -25 46 -91 115 -103 108 -5 -3 -10 0 -12 6 -2 6 -40 15 -83 20 -99 10 -844 9 -940 -1z m1023 -60 c23 -13 42 -30 42 -37 0 -7 4 -13 9 -13 5 0 19 -19 32 -42 22 -43 23 -46 27 -532 2 -341 0 -492 -7 -499 -8 -8 -11 -7 -11 2 0 7 -5 9 -12 5 -7 -5 -25 -7 -40 -6 -15 1 -28 -2 -28 -8 0 -5 8 -10 19 -10 10 0 25 -7 32 -16 21 -25 -9 -41 -73 -37 -29 2 -59 3 -65 3 -18 -1 -55 0 -75 1 -14 0 -18 9 -19 37 l-1 37 -15 -38 c-19 -46 -37 -47 -49 -4 -6 17 -16 32 -24 32 -10 0 -16 -12 -18 -32 -2 -25 -8 -33 -23 -33 -10 0 -19 -4 -19 -10 0 -15 36 -12 49 4 6 7 9 21 5 30 -3 9 -1 16 5 16 6 0 11 -7 11 -16 0 -25 27 -47 47 -36 9 5 28 6 42 2 14 -4 70 -7 124 -7 80 -1 99 2 106 16 8 13 12 14 22 3 9 -8 9 -12 2 -12 -7 0 -15 -10 -19 -22 -8 -29 -56 -75 -92 -91 -38 -16 -950 -23 -1027 -7 -87 18 -153 93 -171 193 -6 33 -9 938 -3 957 1 3 1 13 0 22 -1 9 5 30 13 46 8 16 13 32 11 36 -3 3 -2 4 2 1 3 -3 11 5 18 18 6 12 18 21 27 21 10 -1 14 4 11 12 -3 8 -1 14 3 15 5 0 18 3 29 6 55 13 209 18 615 17 l445 0 43 -24z"/> <path d="M1124 1392 c2 -4 -187 -6 -420 -5 -628 4 -594 32 -594 -488 0 -342 7 -408 46 -450 25 -26 32 -45 12 -33 -7 4 -8 3 -4 -4 4 -6 13 -9 21 -6 20 8 41 -6 25 -16 -9 -5 -9 -9 -1 -14 6 -4 11 -2 11 3 0 6 7 11 15 11 8 0 15 -4 15 -8 0 -5 68 -10 152 -11 84 -1 156 -5 160 -7 4 -3 17 0 29 7 12 6 24 7 28 3 9 -13 165 -13 173 0 5 7 8 6 8 -3 0 -8 6 -11 16 -7 8 3 12 2 9 -4 -7 -11 8 -14 19 -3 9 10 43 14 101 12 85 -2 159 0 185 4 36 6 89 35 118 65 20 22 24 23 18 7 -4 -11 -3 -16 1 -11 4 4 9 20 10 34 1 15 6 47 12 72 13 56 3 689 -11 707 -6 7 -8 22 -5 33 3 11 1 18 -4 14 -5 -3 -9 0 -9 7 0 6 -10 21 -22 31 -23 20 -121 72 -114 60z m29 -36 c50 -18 76 -42 98 -91 17 -36 19 -72 19 -384 0 -235 -4 -356 -12 -383 -14 -46 -54 -83 -106 -98 -52 -14 -844 -13 -897 1 -56 16 -101 67 -115 131 -8 36 -10 163 -8 390 3 322 4 338 24 364 28 39 66 65 105 74 19 4 218 8 444 9 322 0 418 -3 448 -13z"/> <path d="M391 866 c9 -9 94 -29 229 -52 119 -21 456 -26 500 -7 18 7 -34 11 -210 16 -129 4 -280 13 -335 22 -167 25 -190 28 -184 21z"/> <path d="M232 603 c3 -108 3 -108 28 -108 24 0 25 3 25 58 0 31 2 57 5 57 3 0 25 -27 48 -60 33 -46 49 -60 67 -60 l25 0 0 110 0 110 -31 0 -31 0 4 -55 c3 -30 2 -55 -2 -55 -3 0 -16 14 -29 30 -12 17 -27 28 -33 24 -7 -4 -8 -3 -4 4 12 20 -17 52 -47 52 l-28 0 3 -107z m33 65 c-5 -17 -4 -19 4 -9 8 13 13 11 30 -10 26 -30 26 -42 2 -34 -11 3 -22 1 -26 -5 -13 -21 -23 -9 -23 28 0 36 4 52 14 52 3 0 2 -10 -1 -22z m145 -94 c0 -20 -5 -34 -12 -34 -9 0 -8 -4 2 -10 13 -8 12 -10 -4 -10 -14 0 -17 5 -13 21 4 16 3 18 -9 8 -11 -9 -14 -8 -14 6 0 10 -8 28 -17 39 l-18 21 23 -20 c20 -16 25 -17 32 -5 6 8 10 19 10 23 0 5 5 5 10 2 6 -3 10 -22 10 -41z"/> <path d="M480 600 l0 -111 98 3 97 3 3 28 c3 23 0 27 -22 27 -14 0 -28 -4 -31 -10 -3 -5 -26 -10 -51 -10 -42 0 -44 1 -44 30 0 17 -5 30 -11 30 -5 0 -7 5 -4 10 3 6 2 10 -3 10 -5 0 -9 14 -9 30 0 40 4 38 17 -10 8 -29 16 -40 30 -40 11 0 20 -4 20 -10 0 -5 14 -10 30 -10 27 0 30 3 30 31 l0 32 -51 -7 -50 -7 3 28 c3 25 7 28 46 31 25 2 42 -1 42 -7 0 -6 14 -11 30 -11 25 0 30 4 30 25 0 25 0 25 -100 25 l-100 0 0 -110z"/> <path d="M732 603 l3 -108 98 -3 97 -3 0 111 0 110 -100 0 -101 0 3 -107z m168 76 c0 -5 -4 -7 -10 -4 -6 4 -10 -22 -10 -69 l0 -76 -45 0 -45 0 0 74 0 75 48 4 c26 2 50 4 55 5 4 1 7 -3 7 -9z"/> <path d="M992 603 l3 -108 27 -3 c27 -3 27 -2 30 60 l3 63 44 -62 c33 -46 51 -63 68 -63 23 0 23 2 23 111 l0 110 -27 -3 c-27 -3 -28 -5 -25 -55 2 -29 -1 -53 -6 -53 -5 0 -26 25 -47 55 -31 45 -43 55 -67 55 l-29 0 3 -107z m74 42 c23 -24 30 -35 19 -35 -9 0 -20 10 -25 23 -7 17 -9 18 -9 5 -1 -10 -5 -18 -11 -18 -5 0 -10 -6 -10 -14 0 -8 -4 -17 -9 -20 -7 -5 -8 36 -2 87 2 13 11 7 47 -28z m97 -57 c-2 -18 -4 -39 -5 -45 -1 -14 -18 -18 -18 -4 0 4 -11 20 -25 35 -13 14 -20 26 -15 26 5 0 12 -4 15 -10 10 -17 32 -11 38 10 8 31 15 23 10 -12z"/> <path d="M810 335 c-27 -10 -34 -17 -33 -34 3 -21 3 -21 -22 3 -21 21 -29 23 -60 16 -20 -4 -49 -6 -65 -4 -29 5 -49 -9 -30 -21 13 -8 13 -75 0 -75 -5 0 -10 16 -10 36 0 28 -3 35 -17 32 -13 -3 -18 -13 -17 -36 1 -18 -2 -32 -7 -32 -5 0 -9 18 -9 40 0 33 3 40 20 40 11 0 20 4 20 9 0 4 -18 7 -40 6 -22 -1 -43 2 -46 6 -3 5 -14 5 -24 -1 -10 -5 -35 -10 -55 -10 -23 0 -38 -5 -41 -15 -6 -14 -8 -13 -19 1 -8 12 -31 19 -71 22 -48 3 -57 2 -46 -9 6 -7 12 -23 12 -36 0 -21 25 -43 49 -43 19 0 12 15 -11 25 -39 17 -28 40 20 43 l42 3 0 -36 c0 -46 24 -43 28 3 5 46 22 39 22 -8 0 -29 -4 -40 -15 -40 -8 0 -15 -4 -15 -10 0 -12 17 -12 45 -1 11 5 27 3 37 -3 12 -7 33 -7 70 1 32 6 57 7 64 2 6 -5 18 -7 27 -3 8 3 18 1 21 -5 4 -6 18 -6 39 0 19 5 33 5 35 0 4 -12 45 -1 55 16 6 10 14 8 37 -9 25 -18 33 -20 55 -10 15 7 38 9 53 6 l27 -6 -24 20 c-22 18 -27 18 -47 6 -13 -9 -32 -12 -48 -8 -36 9 -33 25 5 22 43 -4 47 15 7 33 -17 8 -33 19 -35 25 -5 16 42 37 66 29 32 -10 25 -25 -9 -18 -41 8 -38 -9 5 -29 28 -12 35 -13 35 -2 0 15 34 36 44 27 3 -4 26 -6 49 -5 39 2 44 0 53 -25 l11 -28 11 28 c12 28 52 39 52 15 0 -10 2 -10 8 -1 5 8 31 12 73 12 102 -1 119 0 119 11 0 7 -33 10 -89 8 -63 -2 -93 1 -105 11 -14 12 -16 12 -10 -3 3 -9 2 -16 -4 -16 -6 0 -12 6 -15 13 -3 8 -9 6 -19 -7 -9 -11 -20 -16 -27 -11 -7 4 -42 9 -78 11 -36 3 -77 11 -91 18 -22 11 -34 11 -62 1z m-299 -35 c13 -7 19 -21 19 -44 0 -29 -4 -34 -27 -39 -32 -6 -59 14 -50 37 4 9 18 16 32 16 14 0 25 5 25 11 0 9 -13 9 -77 -1 -2 0 -3 -13 -3 -30 0 -16 -4 -30 -10 -30 -5 0 -10 18 -10 39 0 39 1 40 38 44 20 2 38 4 40 5 2 1 12 -3 23 -8z m230 0 c38 -21 14 -49 -34 -41 -5 1 -7 -4 -5 -11 8 -22 36 -20 58 2 12 12 24 19 28 16 3 -4 -3 -16 -15 -27 -14 -15 -36 -22 -69 -23 -67 -3 -86 8 -82 47 3 30 6 32 48 38 25 3 46 7 48 7 2 1 12 -3 23 -8z"/> <path d="M634 275 c-9 -23 3 -45 26 -45 16 0 20 7 20 30 0 23 -4 30 -20 30 -11 0 -23 -7 -26 -15z"/> <path d="M121 326 c-7 -9 -8 -17 -3 -20 6 -3 9 -22 8 -41 -2 -47 18 -39 22 8 3 29 0 37 -13 37 -9 0 -13 4 -10 10 7 11 55 9 55 -2 0 -4 -4 -8 -10 -8 -10 0 -7 -66 4 -77 3 -3 6 10 6 30 0 30 4 37 20 37 11 0 20 5 20 11 0 5 -5 7 -10 4 -6 -3 -13 1 -16 9 -8 20 -57 21 -73 2z"/> <path d="M207 284 c-4 -4 -7 -20 -7 -36 0 -26 -3 -28 -37 -28 -26 0 -34 -3 -26 -11 6 -6 25 -8 46 -4 31 6 35 10 31 31 -2 13 0 24 5 24 5 0 8 -8 6 -17 -3 -22 14 -45 27 -37 5 3 14 1 21 -4 16 -13 79 -3 74 12 -2 6 -13 10 -23 8 -59 -10 -78 -3 -84 32 -5 29 -20 43 -33 30z"/> <path d="M280 283 c0 -5 11 -13 25 -20 22 -10 25 -9 25 8 0 14 -7 19 -25 19 -14 0 -25 -3 -25 -7z"/> <path d="M1137 283 c-10 -9 -8 -41 2 -47 16 -10 41 5 41 24 0 10 -7 21 -16 24 -19 7 -19 7 -27 -1z"/> <path d="M903 248 c2 -7 14 -13 27 -13 13 0 25 6 28 13 2 8 -7 12 -28 12 -21 0 -30 -4 -27 -12z"/> <path d="M1203 246 c4 -13 97 -18 97 -5 0 11 -29 18 -68 17 -19 -1 -31 -6 -29 -12z"/> </g> </svg> 